<svg xmlns="http://www.w3.org/2000/svg" viewBox="0 0 100 100" fill="none">
  <!-- Outer Ring -->
  <circle cx="50" cy="50" r="44" stroke="currentColor" stroke-width="1.5" opacity="0.6" stroke-dasharray="2 2" />
  <circle cx="50" cy="50" r="38" stroke="currentColor" stroke-width="1" opacity="0.4" />
  
  <!-- Compass Points -->
  <path d="M50 6 L56 44 L50 50 L44 44 Z" fill="currentColor" opacity="0.9" />
  <path d="M50 94 L56 56 L50 50 L44 56 Z" fill="currentColor" opacity="0.7" />
  <path d="M6 50 L44 44 L50 50 L44 56 Z" fill="currentColor" opacity="0.7" />
  <path d="M94 50 L56 44 L50 50 L56 56 Z" fill="currentColor" opacity="0.9" />

  <!-- Diagonal Minor Points -->
  <path d="M19 19 L46 46 L50 50 L46 44 Z" fill="currentColor" opacity="0.4" />
  <path d="M81 81 L54 54 L50 50 L54 56 Z" fill="currentColor" opacity="0.4" />
  <path d="M19 81 L46 54 L50 50 L44 54 Z" fill="currentColor" opacity="0.4" />
  <path d="M81 19 L54 46 L50 50 L56 46 Z" fill="currentColor" opacity="0.4" />

  <!-- Center Star Accent -->
  <circle cx="50" cy="50" r="5" fill="currentColor" opacity="0.8" />
</svg>
